<svg width="86" height="32" viewBox="0 0 86 32" fill="none" xmlns="http://www.w3.org/2000/svg">
<path d="M21.0856 10.6844C20.8752 9.953 20.5796 9.30672 20.1989 8.74561C19.8181 8.17448 19.3522 7.69353 18.8011 7.30276C18.2601 6.90197 17.6388 6.59636 16.9374 6.38595C16.2461 6.17553 15.4796 6.07032 14.6379 6.07032C13.0648 6.07032 11.682 6.46109 10.4897 7.24264C9.30735 8.02418 8.38553 9.16143 7.72422 10.6544C7.06292 12.1373 6.73226 13.9509 6.73226 16.0951C6.73226 18.2394 7.05791 20.063 7.70919 21.566C8.36048 23.0689 9.2823 24.2162 10.4747 25.0078C11.667 25.7893 13.0748 26.1801 14.698 26.1801C16.1709 26.1801 17.4284 25.9196 18.4705 25.3985C19.5225 24.8675 20.3241 24.121 20.8752 23.1591C21.4363 22.1972 21.7169 21.06 21.7169 19.7474L23.0395 19.9427H15.1038V15.0431H27.9843V18.9207C27.9843 21.6261 27.4131 23.9507 26.2709 25.8945C25.1286 27.8283 23.5555 29.3213 21.5516 30.3734C19.5476 31.4154 17.2531 31.9365 14.668 31.9365C11.7822 31.9365 9.24724 31.3002 7.06292 30.0277C4.8786 28.7451 3.17523 26.9266 1.95281 24.5719C0.740418 22.2072 0.134219 19.4017 0.134219 16.1553C0.134219 13.6603 0.494932 11.4359 1.21636 9.48207C1.9478 7.51818 2.96982 5.8549 4.28242 4.4922C5.59501 3.12951 7.12304 2.09246 8.86648 1.38105C10.6099 0.669645 12.4987 0.313941 14.5327 0.313941C16.2761 0.313941 17.8993 0.569447 19.4023 1.08046C20.9053 1.58145 22.2379 2.29285 23.4002 3.21468C24.5725 4.1365 25.5294 5.23367 26.2709 6.50618C27.0124 7.76868 27.4883 9.16143 27.6987 10.6844H21.0856ZM30.3778 6.10038V0.734774H55.6577V6.10038H46.2341V31.5156H39.8014V6.10038H30.3778ZM78.826 10.6844C78.6156 9.953 78.32 9.30672 77.9393 8.74561C77.5585 8.17448 77.0926 7.69353 76.5415 7.30276C76.0004 6.90197 75.3792 6.59636 74.6778 6.38595C73.9865 6.17553 73.22 6.07032 72.3783 6.07032C70.8052 6.07032 69.4224 6.46109 68.2301 7.24264C67.0477 8.02418 66.1259 9.16143 65.4646 10.6544C64.8033 12.1373 64.4727 13.9509 64.4727 16.0951C64.4727 18.2394 64.7983 20.063 65.4496 21.566C66.1009 23.0689 67.0227 24.2162 68.2151 25.0078C69.4074 25.7893 70.8152 26.1801 72.4384 26.1801C73.9113 26.1801 75.1688 25.9196 76.2109 25.3985C77.2629 24.8675 78.0645 24.121 78.6156 23.1591C79.1767 22.1972 79.4573 21.06 79.4573 19.7474L80.7799 19.9427H72.8442V15.0431H85.7247V18.9207C85.7247 21.6261 85.1535 23.9507 84.0113 25.8945C82.869 27.8283 81.2959 29.3213 79.292 30.3734C77.288 31.4154 74.9935 31.9365 72.4083 31.9365C69.5226 31.9365 66.9876 31.3002 64.8033 30.0277C62.619 28.7451 60.9156 26.9266 59.6932 24.5719C58.4808 22.2072 57.8746 19.4017 57.8746 16.1553C57.8746 13.6603 58.2353 11.4359 58.9568 9.48207C59.6882 7.51818 60.7102 5.8549 62.0228 4.4922C63.3354 3.12951 64.8634 2.09246 66.6069 1.38105C68.3503 0.669645 70.2391 0.313941 72.2731 0.313941C74.0165 0.313941 75.6397 0.569447 77.1427 1.08046C78.6457 1.58145 79.9783 2.29285 81.1406 3.21468C82.3129 4.1365 83.2698 5.23367 84.0113 6.50618C84.7527 7.76868 85.2287 9.16143 85.4391 10.6844H78.826Z" fill="white"/>
</svg>
