<svg width="40" height="40" viewBox="0 0 40 40" fill="none" xmlns="http://www.w3.org/2000/svg">
<path d="M19.7344 0.638672C15.8776 0.638672 12.1075 1.78233 8.90076 3.92501C5.69401 6.0677 3.19464 9.11318 1.71873 12.6763C0.242824 16.2395 -0.143341 20.1603 0.609071 23.9429C1.36148 27.7256 3.21868 31.2001 5.9458 33.9273C8.67293 36.6544 12.1475 38.5116 15.9301 39.264C19.7128 40.0164 23.6336 39.6302 27.1967 38.1543C30.7599 36.6784 33.8054 34.1791 35.948 30.9723C38.0907 27.7655 39.2344 23.9954 39.2344 20.1387C39.2284 14.9688 37.1721 10.0123 33.5164 6.35667C29.8607 2.701 24.9043 0.644627 19.7344 0.638672ZM36.2344 20.1387C36.2357 21.6604 36.0256 23.1748 35.61 24.6387H28.3894C28.8494 21.6563 28.8494 18.621 28.3894 15.6387H35.61C36.0256 17.1025 36.2357 18.617 36.2344 20.1387ZM14.8594 27.6387H24.6094C23.6488 30.786 21.9813 33.6721 19.7344 36.0762C17.4883 33.6714 15.8209 30.7856 14.8594 27.6387ZM14.1281 24.6387C13.6131 21.6608 13.6131 18.6166 14.1281 15.6387H25.3556C25.8706 18.6166 25.8706 21.6608 25.3556 24.6387H14.1281ZM3.23438 20.1387C3.23308 18.617 3.44321 17.1025 3.85876 15.6387H11.0794C10.6194 18.621 10.6194 21.6563 11.0794 24.6387H3.85876C3.44321 23.1748 3.23308 21.6604 3.23438 20.1387ZM24.6094 12.6387H14.8594C15.8199 9.49131 17.4874 6.60526 19.7344 4.20117C21.9805 6.6059 23.6479 9.49174 24.6094 12.6387ZM34.4213 12.6387H27.7425C26.9007 9.55037 25.482 6.64931 23.5613 4.08867C25.882 4.64616 28.0547 5.69888 29.9305 7.17465C31.8063 8.65042 33.3407 10.5144 34.4288 12.6387H34.4213ZM15.9075 4.08867C13.9868 6.64931 12.568 9.55037 11.7263 12.6387H5.04001C6.12802 10.5144 7.66251 8.65042 9.5383 7.17465C11.4141 5.69888 13.5868 4.64616 15.9075 4.08867ZM5.04001 27.6387H11.7263C12.568 30.727 13.9868 33.628 15.9075 36.1887C13.5868 35.6312 11.4141 34.5785 9.5383 33.1027C7.66251 31.6269 6.12802 29.763 5.04001 27.6387ZM23.5613 36.1887C25.482 33.628 26.9007 30.727 27.7425 27.6387H34.4288C33.3407 29.763 31.8063 31.6269 29.9305 33.1027C28.0547 34.5785 25.882 35.6312 23.5613 36.1887Z" fill="#032E15"/>
</svg>
