<svg width="46" height="37" viewBox="0 0 46 37" fill="none" xmlns="http://www.w3.org/2000/svg">
<path d="M45.4306 1.979C45.4092 1.61204 45.2537 1.26572 44.9938 1.00579C44.7339 0.745865 44.3876 0.590431 44.0206 0.569001C34.3156 0.00650123 26.5231 2.95775 23.1744 8.48525C20.9619 12.1378 20.9656 16.5778 23.1444 20.8115C21.9056 22.2852 20.9993 24.0087 20.4875 25.8646L17.4369 22.8121C18.9031 19.7503 18.8469 16.5571 17.2494 13.9078C14.7669 9.824 9.05374 7.62463 1.96061 8.05025C1.59365 8.07168 1.24733 8.22711 0.987401 8.48704C0.727475 8.74697 0.572043 9.09329 0.550612 9.46025C0.132487 16.5534 2.32436 22.2665 6.40999 24.7415C7.7606 25.5659 9.31265 26.0013 10.895 25.9996C12.4285 25.9807 13.9383 25.6174 15.3125 24.9365L20 29.624V34.9996C20 35.3974 20.158 35.779 20.4393 36.0603C20.7206 36.3416 21.1022 36.4996 21.5 36.4996C21.8978 36.4996 22.2793 36.3416 22.5606 36.0603C22.842 35.779 23 35.3974 23 34.9996V29.4702C22.9933 27.0839 23.8054 24.7675 25.3006 22.9077C27.2299 23.916 29.3696 24.4556 31.5462 24.4828C33.6507 24.4895 35.7161 23.9146 37.5144 22.8215C43.0419 19.4765 46.0006 11.684 45.4306 1.979ZM15.1362 20.5134L10.5594 15.9384C10.2758 15.6689 9.89814 15.521 9.507 15.526C9.11586 15.531 8.74215 15.6886 8.46554 15.9652C8.18894 16.2418 8.03134 16.6155 8.02633 17.0066C8.02132 17.3978 8.16931 17.7754 8.43874 18.059L13.0156 22.6359C11.2137 23.2321 9.46624 23.084 7.96436 22.1746C5.08811 20.4328 3.46061 16.3096 3.49999 10.9996C8.80811 10.9528 12.9331 12.5878 14.675 15.464C15.5844 16.9659 15.7325 18.7134 15.1362 20.5134ZM35.96 20.2584C33.4475 21.779 30.4944 21.8953 27.4944 20.6334L37.5612 10.5646C37.8427 10.2834 38.0009 9.90191 38.0011 9.50404C38.0013 9.10617 37.8434 8.72452 37.5622 8.44306C37.281 8.1616 36.8995 8.00338 36.5016 8.00321C36.1037 8.00303 35.7221 8.16091 35.4406 8.44213L25.3719 18.4996C24.1044 15.4996 24.2187 12.5446 25.7469 10.034C28.3606 5.7215 34.5594 3.3215 42.4962 3.50338C42.6762 11.4384 40.2762 17.6446 35.96 20.2584Z" fill="#FCFCFC" fill-opacity="0.7"/>
</svg>
