<svg width="45" height="33" viewBox="0 0 45 33" fill="none" xmlns="http://www.w3.org/2000/svg">
<path d="M44.8913 11.9375L42.2663 5.375C42.0436 4.81976 41.6593 4.34418 41.1632 4.00987C40.667 3.67557 40.082 3.49794 39.4838 3.5H33V2C33 1.60218 32.842 1.22064 32.5607 0.93934C32.2794 0.658036 31.8978 0.5 31.5 0.5H3C2.20435 0.5 1.44129 0.81607 0.87868 1.37868C0.31607 1.94129 0 2.70435 0 3.5V24.5C0 25.2956 0.31607 26.0587 0.87868 26.6213C1.44129 27.1839 2.20435 27.5 3 27.5H6.1875C6.51795 28.7906 7.26855 29.9346 8.32097 30.7515C9.37338 31.5684 10.6677 32.0118 12 32.0118C13.3323 32.0118 14.6266 31.5684 15.679 30.7515C16.7315 29.9346 17.482 28.7906 17.8125 27.5H27.1875C27.518 28.7906 28.2686 29.9346 29.321 30.7515C30.3734 31.5684 31.6677 32.0118 33 32.0118C34.3323 32.0118 35.6266 31.5684 36.679 30.7515C37.7315 29.9346 38.4821 28.7906 38.8125 27.5H42C42.7957 27.5 43.5587 27.1839 44.1213 26.6213C44.6839 26.0587 45 25.2956 45 24.5V12.5C45.0005 12.3072 44.9636 12.1162 44.8913 11.9375ZM33 6.5H39.4838L41.2838 11H33V6.5ZM3 3.5H30V15.5H3V3.5ZM12 29C11.4067 29 10.8266 28.8241 10.3333 28.4944C9.83994 28.1648 9.45542 27.6962 9.22836 27.1481C9.0013 26.5999 8.94189 25.9967 9.05764 25.4147C9.1734 24.8328 9.45912 24.2982 9.87868 23.8787C10.2982 23.4591 10.8328 23.1734 11.4147 23.0576C11.9967 22.9419 12.5999 23.0013 13.1481 23.2284C13.6962 23.4554 14.1648 23.8399 14.4944 24.3333C14.8241 24.8266 15 25.4067 15 26C15 26.7956 14.6839 27.5587 14.1213 28.1213C13.5587 28.6839 12.7957 29 12 29ZM27.1875 24.5H17.8125C17.482 23.2094 16.7315 22.0654 15.679 21.2485C14.6266 20.4316 13.3323 19.9882 12 19.9882C10.6677 19.9882 9.37338 20.4316 8.32097 21.2485C7.26855 22.0654 6.51795 23.2094 6.1875 24.5H3V18.5H30V20.8081C29.3103 21.2068 28.7065 21.7384 28.2237 22.3722C27.7409 23.0059 27.3887 23.7291 27.1875 24.5ZM33 29C32.4067 29 31.8266 28.8241 31.3333 28.4944C30.8399 28.1648 30.4554 27.6962 30.2284 27.1481C30.0013 26.5999 29.9419 25.9967 30.0576 25.4147C30.1734 24.8328 30.4591 24.2982 30.8787 23.8787C31.2982 23.4591 31.8328 23.1734 32.4147 23.0576C32.9967 22.9419 33.5999 23.0013 34.1481 23.2284C34.6962 23.4554 35.1648 23.8399 35.4944 24.3333C35.8241 24.8266 36 25.4067 36 26C36 26.7956 35.6839 27.5587 35.1213 28.1213C34.5587 28.6839 33.7957 29 33 29ZM42 24.5H38.8125C38.4781 23.2125 37.7261 22.0723 36.6742 21.258C35.6224 20.4437 34.3302 20.0013 33 20V14H42V24.5Z" fill="#FCFCFC" fill-opacity="0.7"/>
</svg>
