<svg width="40" height="40" viewBox="0 0 40 40" fill="none" xmlns="http://www.w3.org/2000/svg">
<path d="M20 0.5C16.1433 0.5 12.3731 1.64366 9.16639 3.78634C5.95963 5.92903 3.46027 8.97451 1.98436 12.5377C0.508449 16.1008 0.122284 20.0216 0.874696 23.8043C1.62711 27.5869 3.4843 31.0615 6.21143 33.7886C8.93855 36.5157 12.4131 38.3729 16.1957 39.1253C19.9784 39.8777 23.8992 39.4916 27.4623 38.0156C31.0255 36.5397 34.071 34.0404 36.2137 30.8336C38.3564 27.6269 39.5 23.8567 39.5 20C39.4941 14.8301 37.4377 9.87366 33.782 6.21799C30.1263 2.56233 25.1699 0.505955 20 0.5ZM36.5 20C36.5013 21.5217 36.2912 23.0362 35.8756 24.5H28.655C29.115 21.5176 29.115 18.4824 28.655 15.5H35.8756C36.2912 16.9638 36.5013 18.4783 36.5 20ZM15.125 27.5H24.875C23.9145 30.6474 22.247 33.5334 20 35.9375C17.7539 33.5328 16.0865 30.6469 15.125 27.5ZM14.3938 24.5C13.8788 21.5221 13.8788 18.4779 14.3938 15.5H25.6213C26.1362 18.4779 26.1362 21.5221 25.6213 24.5H14.3938ZM3.50001 20C3.4987 18.4783 3.70884 16.9638 4.12438 15.5H11.345C10.885 18.4824 10.885 21.5176 11.345 24.5H4.12438C3.70884 23.0362 3.4987 21.5217 3.50001 20ZM24.875 12.5H15.125C16.0855 9.35264 17.753 6.46659 20 4.0625C22.2461 6.46723 23.9135 9.35307 24.875 12.5ZM34.6869 12.5H28.0081C27.1664 9.4117 25.7476 6.51064 23.8269 3.95C26.1476 4.50749 28.3203 5.56021 30.1961 7.03598C32.0719 8.51175 33.6064 10.3757 34.6944 12.5H34.6869ZM16.1731 3.95C14.2524 6.51064 12.8337 9.4117 11.9919 12.5H5.30563C6.39364 10.3757 7.92814 8.51175 9.80392 7.03598C11.6797 5.56021 13.8524 4.50749 16.1731 3.95ZM5.30563 27.5H11.9919C12.8337 30.5883 14.2524 33.4894 16.1731 36.05C13.8524 35.4925 11.6797 34.4398 9.80392 32.964C7.92814 31.4882 6.39364 29.6243 5.30563 27.5ZM23.8269 36.05C25.7476 33.4894 27.1664 30.5883 28.0081 27.5H34.6944C33.6064 29.6243 32.0719 31.4882 30.1961 32.964C28.3203 34.4398 26.1476 35.4925 23.8269 36.05Z" fill="#FCFCFC" fill-opacity="0.7"/>
</svg>
